<svg width="86" height="22" viewBox="0 0 86 22" fill="none" xmlns="http://www.w3.org/2000/svg">
<g clip-path="url(#clip0_102_75)">
<path d="M28.1883 19.2564V7.84663H32.0522V19.2564H28.1883ZM30.1435 6.91876C29.4917 6.91876 28.9874 6.75641 28.6306 6.43171C28.2891 6.10709 28.1184 5.6742 28.1184 5.13303C28.1184 4.62283 28.2891 4.18994 28.6304 3.83435C28.9874 3.47876 29.4917 3.30096 30.1434 3.30096C30.7952 3.30096 31.2918 3.47876 31.6332 3.83435C31.9901 4.18994 32.1686 4.62283 32.1686 5.13303C32.1686 5.6742 31.9901 6.10709 31.6332 6.43171C31.2918 6.75641 30.7953 6.91876 30.1436 6.91876H30.1435ZM37.8176 19.4886C36.7002 19.4886 35.8543 19.1948 35.2801 18.6072C34.7215 18.0044 34.4423 17.1695 34.4423 16.1027V10.6991H32.906V7.84641H34.4423V5.06347H38.3062V7.84663H40.8203V10.6988H38.3059V15.5458C38.3059 15.9015 38.3758 16.1566 38.5155 16.3111C38.6707 16.4503 38.9034 16.5199 39.2137 16.5199C39.6328 16.5199 40.0906 16.3344 40.5871 15.9633L41.4718 18.4912C41.0218 18.8009 40.5098 19.0482 39.9355 19.2333C39.3613 19.4036 38.6553 19.4888 37.8177 19.4888L37.8176 19.4886ZM47.3213 19.4886C45.5522 19.4886 44.1556 18.9862 43.1314 17.9813C42.1228 16.9762 41.6185 15.5151 41.6185 13.598C41.6185 12.2065 41.9056 11.0392 42.4796 10.0961C43.0694 9.12212 43.8068 8.46502 44.6919 8.12477C45.6228 7.76918 46.4841 7.59138 47.2759 7.59138C48.269 7.59138 49.0993 7.79236 49.7668 8.19433C50.4342 8.58089 50.923 9.00607 51.2331 9.4699C51.5594 9.93365 51.7921 10.297 51.9313 10.5599L49.2551 12.2761C49.0072 11.7659 48.7356 11.3639 48.4403 11.0701C48.1458 10.7763 47.7891 10.6295 47.3703 10.6295C46.7805 10.6295 46.315 10.8613 45.9739 11.3251C45.6328 11.789 45.4622 12.4925 45.4622 13.4356C45.4622 14.456 45.6638 15.2058 46.0671 15.6851C46.4704 16.1644 47.0447 16.4041 47.7899 16.4041C48.3796 16.4041 48.8684 16.2957 49.2562 16.079C49.6595 15.8622 50.0397 15.5839 50.3969 15.244L51.6307 18.1194C51.2582 18.4283 50.7072 18.7376 49.9779 19.0473C49.2485 19.3407 48.364 19.4874 47.3243 19.4874L47.3213 19.4886ZM52.9435 19.2564V3.76468H56.8307V8.47258C57.1565 8.24063 57.5522 8.03965 58.0177 7.86963C58.4832 7.68406 59.0419 7.59127 59.6938 7.59127C61.0593 7.59127 62.0757 7.97797 62.743 8.75138C63.4257 9.52479 63.7671 10.6149 63.7671 12.0216V19.2576H59.8799V12.485C59.8799 11.8362 59.756 11.3647 59.5081 11.0705C59.2602 10.7616 58.9342 10.6071 58.5302 10.6071C58.189 10.6071 57.8708 10.6845 57.5756 10.8394C57.2811 10.9942 57.0328 11.1568 56.8308 11.3271V19.2587H52.9436L52.9435 19.2564ZM66.7518 19.4886C66.1309 19.4886 65.6421 19.3109 65.2853 18.9553C64.9284 18.5997 64.7499 18.1436 64.7499 17.587C64.7499 17.0304 64.9284 16.5665 65.2853 16.1956C65.6422 15.8245 66.1309 15.6389 66.7516 15.6389C67.3414 15.6389 67.8147 15.8245 68.1716 16.1956C68.529 16.5666 68.7077 17.0304 68.7077 17.587C68.7077 18.1437 68.5294 18.5997 68.1727 18.9553C67.8316 19.3109 67.3583 19.4886 66.753 19.4886H66.7518ZM69.61 19.2564V7.84663H73.4739V19.2564H69.61ZM71.5647 6.92097C70.9128 6.92097 70.4084 6.75862 70.0516 6.43393C69.7102 6.10923 69.5396 5.67633 69.5396 5.13524C69.5396 4.62505 69.7102 4.19215 70.0516 3.83656C70.4085 3.48097 70.9128 3.30318 71.5645 3.30318C72.2163 3.30318 72.7129 3.48097 73.0544 3.83656C73.4113 4.19215 73.5897 4.62505 73.5897 5.13524C73.5897 5.67641 73.4113 6.1093 73.0544 6.43393C72.713 6.75862 72.2165 6.92097 71.5647 6.92097ZM80.2971 19.4886C79.397 19.4886 78.5978 19.3418 77.8995 19.048C77.2012 18.7388 76.6037 18.3214 76.1072 17.7957C75.6262 17.2545 75.2537 16.6206 74.9899 15.894C74.7416 15.1518 74.6175 14.3478 74.6175 13.482C74.6175 12.1988 74.8968 11.0779 75.4555 10.1193C76.0296 9.17617 76.7434 8.51906 77.5969 8.14799C78.4659 7.77692 79.3659 7.59138 80.297 7.59138C81.6312 7.59138 82.7327 7.9006 83.6014 8.51903C84.4857 9.13746 85.1066 9.9105 85.464 10.8381C85.8207 11.7658 85.999 12.6471 85.999 13.482C85.999 14.3477 85.8669 15.1517 85.6028 15.894C85.3549 16.6206 84.9823 17.2544 84.485 17.7956C84.004 18.3213 83.4064 18.7389 82.6923 19.0486C81.9942 19.3428 81.195 19.4899 80.2948 19.4899L80.2971 19.4886ZM80.2971 16.5201C80.9488 16.5201 81.422 16.2496 81.7168 15.7084C82.0117 15.1517 82.1591 14.4097 82.1591 13.4822C82.1591 12.6008 82.0039 11.8973 81.6936 11.3716C81.3835 10.846 80.9181 10.5831 80.2972 10.5831C79.6919 10.5831 79.2342 10.846 78.9241 11.3716C78.6141 11.8973 78.459 12.6008 78.459 13.4821C78.459 14.4097 78.6067 15.1518 78.9019 15.7083C79.2127 16.2494 79.6782 16.52 80.2983 16.52L80.2971 16.5201Z" fill="white"/>
<path d="M3.20062 0.135913C2.13014 0.769161 0.0209343 3.18349 0.000732422 3.81663V4.86481C0.000732422 6.19346 1.24725 7.36109 2.37878 7.36109C3.73741 7.36109 4.8696 6.23903 4.86982 4.90739C4.86982 6.23892 5.96317 7.36109 7.32213 7.36109C8.68098 7.36109 9.73925 6.23903 9.73925 4.90739C9.73925 6.23892 10.9014 7.36109 12.26 7.36109H12.2845C13.6431 7.36109 14.8064 6.23903 14.8064 4.90739C14.8064 6.23892 15.8642 7.36109 17.2228 7.36109C18.5815 7.36109 19.6748 6.23903 19.6748 4.90739C19.6748 6.23892 20.807 7.36109 22.1656 7.36109C23.2967 7.36109 24.5432 6.19357 24.5432 4.86481V3.81663C24.5221 3.18349 22.4131 0.769161 21.3431 0.135913C18.0165 0.0194597 15.7088 -0.000557357 12.2711 -0.00011499C8.83472 0.000106193 4.14722 0.053522 3.2004 0.135913H3.20062ZM9.72216 6.73536C9.59273 6.96163 9.43056 7.167 9.24397 7.3487C8.73116 7.84858 8.02786 8.15823 7.25265 8.15823C6.47732 8.15823 5.77014 7.84858 5.25732 7.34848C5.07195 7.16711 4.93099 6.97313 4.80112 6.7473V6.74775C4.67236 6.97402 4.49143 7.16778 4.30606 7.34937C3.79324 7.84924 3.08618 8.15857 2.3114 8.15857C2.21816 8.15857 2.12159 8.13313 2.04279 8.10659C1.93378 9.24015 1.88739 10.3228 1.87129 11.1136V11.118C1.86907 11.5194 1.86741 11.849 1.8653 12.3069C1.88639 14.6857 1.62887 20.0151 2.91757 21.3245C4.91445 21.789 8.58897 22.0002 12.2759 22.0013H12.2762C15.963 22.0002 19.6377 21.789 21.6346 21.3256C22.9233 20.0159 22.6658 14.6865 22.6869 12.3084C22.685 11.8506 22.6831 11.5208 22.681 11.1195V11.1151C22.6643 10.3253 22.6183 9.24225 22.5089 8.10891C22.4301 8.13545 22.3328 8.16122 22.2392 8.16122C21.4644 8.16122 20.7569 7.85189 20.244 7.35213C20.0581 7.17032 19.8777 6.97656 19.7486 6.75051L19.7481 6.74985C19.6186 6.97546 19.4775 7.16977 19.2916 7.35103C18.7788 7.85112 18.0717 8.16078 17.2966 8.16078C16.5215 8.16078 15.8181 7.85112 15.3053 7.35125C15.1188 7.16943 14.9568 6.96418 14.8269 6.73779C14.6978 6.9634 14.5394 7.16988 14.3534 7.35114C13.8406 7.85101 13.1335 8.16067 12.3576 8.16067C12.3305 8.16067 12.3032 8.15956 12.2766 8.15845H12.2757C12.2487 8.15956 12.2217 8.16067 12.1947 8.16067C11.4192 8.16067 10.712 7.85101 10.1991 7.35114C10.0129 7.16977 9.85436 6.96373 9.72515 6.73802L9.72216 6.73536ZM7.67289 9.37552L7.67267 9.3764H7.67489C8.48629 9.37817 9.20779 9.3764 10.1002 10.3477C10.804 10.2744 11.5377 10.2376 12.2736 10.2388H12.2747C13.0106 10.2377 13.7443 10.2753 14.4481 10.3483C15.3416 9.37729 16.062 9.3795 16.8734 9.37729H16.8756V9.37618C17.2595 9.37618 18.7926 9.37618 19.8615 12.3666L21.01 16.4695C21.8608 19.5219 20.7377 19.5971 19.3369 19.5993C17.259 19.523 16.1091 18.0189 16.1091 16.516C14.9591 16.704 13.6171 16.798 12.2757 16.798H12.2751C10.9336 16.798 9.59207 16.704 8.44234 16.516C8.44234 18.0189 7.29238 19.5219 5.2147 19.5993C3.81389 19.5971 2.69058 19.5219 3.54161 16.4706L4.68934 12.3677C5.75826 9.37729 7.29227 9.37729 7.67522 9.37729L7.67289 9.37552ZM12.2727 11.7256V11.7264C12.2708 11.7282 10.0858 13.7276 9.69308 14.4387L11.1239 14.3817V15.6247C11.1239 15.683 11.6982 15.6593 12.2727 15.6329H12.2735C12.8481 15.6594 13.4223 15.683 13.4223 15.6248V14.3818L14.8531 14.4386C14.4604 13.7275 12.2735 11.7264 12.2735 11.7264V11.7257L12.2733 11.7259L12.2727 11.7256Z" fill="white"/>
</g>
<defs>
<clipPath id="clip0_102_75">
<rect width="86" height="22" fill="white"/>
</clipPath>
</defs>
</svg>
