<svg width="109" height="15" viewBox="0 0 109 15" fill="none" xmlns="http://www.w3.org/2000/svg">
<g clip-path="url(#clip0_102_80)">
<path fill-rule="evenodd" clip-rule="evenodd" d="M69.0438 2.94081C69.4569 3.247 69.6907 3.67658 69.7452 4.22956H72.571C72.5575 3.39324 72.3349 2.65747 71.9039 2.02223C71.4723 1.387 70.8687 0.891153 70.0924 0.534693C69.3207 0.178231 68.4174 0 67.3823 0C66.3655 0 65.4576 0.178231 64.6586 0.534693C63.8597 0.891153 63.2309 1.387 62.7724 2.02223C62.3185 2.65747 62.0937 3.4001 62.0983 4.25012C62.0937 5.28751 62.432 6.11241 63.1129 6.72479C63.7938 7.33718 64.7222 7.78733 65.8979 8.07521L67.4164 8.45909C67.9248 8.58248 68.3538 8.71959 68.7033 8.87042C69.0574 9.02126 69.3252 9.20402 69.5069 9.41879C69.693 9.63363 69.786 9.89868 69.786 10.214C69.786 10.5522 69.6839 10.8515 69.4796 11.112C69.2753 11.3725 68.9871 11.5759 68.6148 11.7221C68.2471 11.8684 67.8136 11.9415 67.3142 11.9415C66.8058 11.9415 66.3496 11.8638 65.9456 11.7084C65.5461 11.5485 65.2261 11.3131 64.9854 11.0023C64.7494 10.687 64.6155 10.294 64.5837 9.82329H61.7306C61.7533 10.8333 61.9962 11.681 62.4592 12.3664C62.9268 13.0474 63.5759 13.5615 64.4067 13.9089C65.2419 14.2562 66.2225 14.4299 67.3483 14.4299C68.4832 14.4299 69.4524 14.2585 70.2558 13.9157C71.0639 13.5684 71.6814 13.0817 72.1081 12.4556C72.539 11.8249 72.7573 11.08 72.7616 10.2208C72.7573 9.63591 72.6507 9.11719 72.4416 8.66476C72.2375 8.21232 71.9495 7.81934 71.5768 7.48566C71.2049 7.15206 70.7643 6.87103 70.2558 6.64253C69.7474 6.41403 69.189 6.23123 68.5808 6.09412L67.3278 5.7925C67.0237 5.72395 66.7377 5.6417 66.4699 5.54573C66.2021 5.44518 65.966 5.32865 65.7617 5.19612C65.5574 5.05901 65.3963 4.89678 65.2783 4.70941C65.1648 4.52203 65.1126 4.30268 65.1216 4.05132C65.1216 3.7497 65.2079 3.48008 65.3804 3.24243C65.5574 3.00479 65.8116 2.81971 66.143 2.68718C66.4744 2.55007 66.8807 2.48152 67.3619 2.48152C68.0701 2.48152 68.6307 2.63461 69.0438 2.94081ZM10.9033 14.231H14.0628L15.0973 11.0298H20.1325L21.1649 14.231H24.3244L19.517 0.191941H15.7175L10.9033 14.231ZM19.3852 8.71276L17.6717 3.4001H17.5628L15.846 8.71276H19.3852ZM30.8888 6.86875L33.5444 6.70422C33.4173 5.73538 32.9725 4.9699 32.2098 4.40779C31.4517 3.84567 30.4122 3.56462 29.0911 3.56462C28.1969 3.56462 27.4161 3.69715 26.7487 3.96221C26.0859 4.22727 25.5707 4.6043 25.203 5.09329C24.8399 5.58229 24.6583 6.16496 24.6583 6.84132C24.6583 7.6274 24.9057 8.27405 25.4005 8.78131C25.8998 9.28858 26.6602 9.64501 27.6816 9.85067L29.4929 10.214C29.9469 10.3054 30.2827 10.4379 30.5006 10.6116C30.7185 10.7806 30.8298 10.9978 30.8343 11.2628C30.8298 11.5781 30.6709 11.8364 30.3577 12.0375C30.049 12.234 29.6404 12.3322 29.132 12.3322C28.6145 12.3322 28.19 12.2225 27.8586 12.0032C27.5272 11.7792 27.3184 11.4547 27.2322 11.0298L24.3791 11.1805C24.5198 12.186 24.9987 12.9812 25.8158 13.5661C26.6375 14.1465 27.7406 14.4367 29.1252 14.4367C30.0331 14.4367 30.8343 14.2927 31.5289 14.0048C32.228 13.7124 32.7772 13.3056 33.1767 12.7846C33.5807 12.2637 33.7827 11.6581 33.7827 10.968C33.7827 10.2095 33.5331 9.59708 33.0337 9.13092C32.5344 8.66476 31.7763 8.3266 30.7594 8.11639L28.8664 7.73251C28.3807 7.6274 28.038 7.48801 27.8382 7.31435C27.6385 7.14068 27.5386 6.92816 27.5386 6.67681C27.5386 6.36147 27.6929 6.11012 28.0016 5.92275C28.3104 5.73081 28.6894 5.63484 29.1388 5.63484C29.4747 5.63484 29.763 5.69197 30.0036 5.80621C30.2487 5.91589 30.4462 6.06442 30.596 6.25179C30.7458 6.43459 30.8434 6.64025 30.8888 6.86875ZM43.4487 6.70422L40.7931 6.86875C40.7477 6.64025 40.6501 6.43459 40.5004 6.25179C40.3505 6.06442 40.153 5.91589 39.9079 5.80621C39.6673 5.69197 39.3791 5.63484 39.0431 5.63484C38.5937 5.63484 38.2146 5.73081 37.906 5.92275C37.5973 6.11012 37.443 6.36147 37.443 6.67681C37.443 6.92816 37.5428 7.14068 37.7426 7.31435C37.9423 7.48801 38.2851 7.6274 38.7708 7.73251L40.6638 8.11639C41.6806 8.3266 42.4387 8.66476 42.9381 9.13092C43.4374 9.59708 43.6871 10.2095 43.6871 10.968C43.6871 11.6581 43.4851 12.2637 43.0811 12.7846C42.6816 13.3056 42.1323 13.7124 41.4332 14.0048C40.7387 14.2927 39.9374 14.4367 39.0295 14.4367C37.6449 14.4367 36.5419 14.1465 35.7202 13.5661C34.9031 12.9812 34.4241 12.186 34.2835 11.1805L37.1365 11.0298C37.2228 11.4547 37.4316 11.7792 37.763 12.0032C38.0944 12.2225 38.5188 12.3322 39.0363 12.3322C39.5448 12.3322 39.9533 12.234 40.262 12.0375C40.5752 11.8364 40.7341 11.5781 40.7387 11.2628C40.7341 10.9978 40.6229 10.7806 40.405 10.6116C40.1871 10.4379 39.8512 10.3054 39.3972 10.214L37.5859 9.85067C36.5646 9.64501 35.8042 9.28858 35.3048 8.78131C34.81 8.27405 34.5626 7.6274 34.5626 6.84132C34.5626 6.16496 34.7442 5.58229 35.1073 5.09329C35.4751 4.6043 35.9903 4.22727 36.6531 3.96221C37.3204 3.69715 38.1012 3.56462 38.9955 3.56462C40.3165 3.56462 41.356 3.84567 42.1141 4.40779C42.8768 4.9699 43.3216 5.73538 43.4487 6.70422ZM46.6391 13.7786C47.4154 14.2174 48.3415 14.4367 49.4174 14.4367C50.2799 14.4367 51.0402 14.3042 51.6985 14.0391C52.3613 13.7695 52.9014 13.3947 53.319 12.9149C53.7412 12.4305 54.0204 11.8638 54.1566 11.2148L51.4737 11.0366C51.3739 11.3016 51.2286 11.5256 51.0379 11.7084C50.8473 11.8912 50.618 12.0283 50.3502 12.1197C50.0824 12.2111 49.7873 12.2568 49.465 12.2568C48.9793 12.2568 48.5594 12.154 48.2053 11.9483C47.8512 11.7427 47.5765 11.4502 47.3813 11.0709C47.1907 10.6915 47.0954 10.2415 47.0954 9.72046V9.71356H54.2179V8.91153C54.2179 8.01583 54.0931 7.23434 53.8434 6.56713C53.5937 5.89533 53.2441 5.33778 52.7948 4.89449C52.3499 4.4512 51.8278 4.11988 51.2286 3.90052C50.6339 3.67658 49.9916 3.56462 49.3016 3.56462C48.2756 3.56462 47.3813 3.79312 46.6187 4.25012C45.8606 4.70713 45.2727 5.34464 44.8551 6.16268C44.4374 6.98071 44.2287 7.93127 44.2287 9.01436C44.2287 10.1249 44.4374 11.0869 44.8551 11.9004C45.2727 12.7092 45.8674 13.3353 46.6391 13.7786ZM47.0981 7.90382C47.1156 7.52577 47.2123 7.18072 47.3882 6.86875C47.5788 6.52599 47.8421 6.25408 48.178 6.053C48.5185 5.84735 48.9089 5.74452 49.3492 5.74452C49.7714 5.74452 50.1414 5.8382 50.4591 6.02558C50.7814 6.20838 51.0334 6.46201 51.215 6.78649C51.3966 7.11096 51.4874 7.48339 51.4874 7.90382H47.0981ZM60.8112 3.70172V5.89533H58.8433V10.9955C58.8433 11.2651 58.8842 11.4753 58.9659 11.6261C59.0476 11.7724 59.1611 11.8752 59.3064 11.9346C59.4561 11.994 59.6287 12.0237 59.8239 12.0237C59.9601 12.0237 60.0963 12.0123 60.2324 11.9895C60.3686 11.962 60.473 11.9415 60.5456 11.9277L61.0019 14.1008C60.8566 14.1465 60.6523 14.1991 60.389 14.2585C60.1258 14.3225 59.8057 14.3613 59.4289 14.375C58.7298 14.4024 58.117 14.3087 57.5904 14.094C57.0684 13.8791 56.6621 13.5455 56.3715 13.0931C56.081 12.6407 55.938 12.0694 55.9425 11.3794V5.89533H54.5126V3.70172H55.9425V1.17906H58.8433V3.70172H60.8112ZM79.6783 3.70172V5.89533H77.7105V10.9955C77.7105 11.2651 77.751 11.4753 77.8328 11.6261C77.9146 11.7724 78.0284 11.8752 78.1735 11.9346C78.3235 11.994 78.4956 12.0237 78.6912 12.0237C78.827 12.0237 78.9636 12.0123 79.0994 11.9895C79.2359 11.962 79.3405 11.9415 79.413 11.9277L79.8689 14.1008C79.7238 14.1465 79.5197 14.1991 79.2558 14.2585C78.9927 14.3225 78.6727 14.3613 78.2958 14.375C77.5967 14.4024 76.9844 14.3087 76.4575 14.094C75.9355 13.8791 75.5294 13.5455 75.2385 13.0931C74.9484 12.6407 74.8055 12.0694 74.8097 11.3794V5.89533H73.3796V3.70172H74.8097V1.17906H77.7105V3.70172H79.6783ZM82.5741 13.758C83.3457 14.2105 84.2609 14.4367 85.3184 14.4367C86.3759 14.4367 87.2883 14.2105 88.0556 13.758C88.8273 13.301 89.4218 12.6658 89.8399 11.8524C90.2574 11.0343 90.4665 10.0861 90.4665 9.00753C90.4665 7.91982 90.2574 6.96928 89.8399 6.15582C89.4218 5.33778 88.8273 4.70255 88.0556 4.25012C87.2883 3.79312 86.3759 3.56462 85.3184 3.56462C84.2609 3.56462 83.3457 3.79312 82.5741 4.25012C81.8067 4.70255 81.2144 5.33778 80.7969 6.15582C80.3795 6.96928 80.1704 7.91982 80.1704 9.00753C80.1704 10.0861 80.3795 11.0343 80.7969 11.8524C81.2144 12.6658 81.8067 13.301 82.5741 13.758ZM86.5373 11.7632C86.2152 12.0375 85.8134 12.1745 85.3319 12.1745C84.8462 12.1745 84.438 12.0375 84.1066 11.7632C83.7795 11.4845 83.532 11.1051 83.3642 10.6253C83.2006 10.1454 83.1188 9.59935 83.1188 8.98698C83.1188 8.37453 83.2006 7.82844 83.3642 7.34862C83.532 6.86875 83.7795 6.48943 84.1066 6.21066C84.438 5.93189 84.8462 5.7925 85.3319 5.7925C85.8134 5.7925 86.2152 5.93189 86.5373 6.21066C86.8595 6.48943 87.1027 6.86875 87.2656 7.34862C87.4341 7.82844 87.518 8.37453 87.518 8.98698C87.518 9.59935 87.4341 10.1454 87.2656 10.6253C87.1027 11.1051 86.8595 11.4845 86.5373 11.7632ZM91.4898 14.231V3.70172H94.3017V5.53887H94.4105C94.6011 4.88536 94.9211 4.39179 95.3706 4.05818C95.82 3.72 96.3377 3.55091 96.923 3.55091C97.0688 3.55091 97.2253 3.56004 97.3931 3.57833C97.5609 3.59661 97.7088 3.62174 97.8361 3.65373V6.24494C97.6996 6.2038 97.5111 6.16724 97.2708 6.13526C97.0297 6.10327 96.8099 6.08727 96.6101 6.08727C96.1834 6.08727 95.8022 6.18095 95.4659 6.36833C95.1345 6.55112 94.8713 6.80705 94.6765 7.13606C94.4859 7.46511 94.3906 7.84444 94.3906 8.27405V14.231H91.4898ZM99.9739 13.7786C100.75 14.2174 101.676 14.4367 102.752 14.4367C103.615 14.4367 104.375 14.3042 105.034 14.0391C105.697 13.7695 106.236 13.3947 106.654 12.9149C107.076 12.4305 107.356 11.8638 107.491 11.2148L104.809 11.0366C104.709 11.3016 104.564 11.5256 104.373 11.7084C104.182 11.8912 103.953 12.0283 103.685 12.1197C103.417 12.2111 103.122 12.2568 102.8 12.2568C102.314 12.2568 101.895 12.154 101.541 11.9483C101.186 11.7427 100.912 11.4502 100.716 11.0709C100.526 10.6915 100.43 10.2415 100.43 9.72046V9.71356H107.553V8.91153C107.553 8.01583 107.428 7.23434 107.179 6.56713C106.929 5.89533 106.579 5.33778 106.13 4.89449C105.685 4.4512 105.163 4.11988 104.564 3.90052C103.969 3.67658 103.326 3.56462 102.636 3.56462C101.611 3.56462 100.716 3.79312 99.9539 4.25012C99.1959 4.70713 98.6077 5.34464 98.1903 6.16268C97.7721 6.98071 97.5638 7.93127 97.5638 9.01436C97.5638 10.1249 97.7721 11.0869 98.1903 11.9004C98.6077 12.7092 99.2023 13.3353 99.9739 13.7786ZM100.433 7.90382C100.45 7.52577 100.547 7.18072 100.723 6.86875C100.914 6.52599 101.177 6.25408 101.513 6.053C101.853 5.84735 102.244 5.74452 102.684 5.74452C103.106 5.74452 103.476 5.8382 103.794 6.02558C104.116 6.20838 104.368 6.46201 104.55 6.78649C104.731 7.11096 104.822 7.48339 104.822 7.90382H100.433ZM6.68883 2.96548L5.03399 2.00313V0.119223L9.25793 2.5751V7.48687L7.63778 6.54489V4.62118C7.6397 4.55029 7.5577 4.50465 7.49889 4.54057L5.5316 5.68451C5.47663 5.71656 5.43902 5.77677 5.43902 5.84572V8.1336C5.43709 8.2035 5.51906 8.25015 5.57788 8.21417L7.23271 7.25184L8.85286 8.19383L4.62895 10.6497L0.405033 8.19383L2.02516 7.25184L3.68098 8.21417C3.7398 8.25015 3.82081 8.20158 3.81888 8.1326V5.84572C3.81888 5.78065 3.7861 5.7185 3.72631 5.68355L1.759 4.53961C1.69921 4.50271 1.61917 4.55126 1.62013 4.6202V6.54489L0 7.48687V2.5751L4.22392 0.119223V2.00313L2.56907 2.96548C2.50735 2.99849 2.50927 3.09366 2.56907 3.12668L4.53637 4.27061C4.59134 4.30266 4.66174 4.30557 4.72153 4.27061L6.68883 3.12668C6.75055 3.09366 6.74863 2.99849 6.68883 2.96548Z" fill="white"/>
</g>
<defs>
<clipPath id="clip0_102_80">
<rect width="108.095" height="14.9342" fill="white"/>
</clipPath>
</defs>
</svg>
